<?xml version="1.0" encoding="utf-8" ?>
<svg baseProfile="full" height="500" version="1.1" width="500" xmlns="http://www.w3.org/2000/svg" xmlns:ev="http://www.w3.org/2001/xml-events" xmlns:xlink="http://www.w3.org/1999/xlink"><defs /><g fill="none" fill-opacity="0" id="uno"><path d="M 345.746312,290.641898 a 104.015000,104.015000 0.000000 0,0 -83.070073,-143.881586" fill="none" stroke="gainsboro" stroke-width="31.2045" /><path d="M 340.001534,288.203384 a 97.774100,97.774100 0.000000 0,0 -78.085868,-135.248691" fill="none" stroke="rgb(109,168,0)" stroke-width="18.7227" /><path d="M 358.672064,296.128555 a 118.057025,118.057025 0.000000 0,0 -94.284532,-163.305600" fill="none" stroke="gray" stroke-width="1" /><path d="M 332.341829,284.952033 a 89.452900,89.452900 0.000000 0,0 -71.440262,-123.738164" fill="none" stroke="gray" stroke-width="1" /><path d="M 166.929927,312.597790 a 104.015000,104.015000 0.000000 0,0 166.140145,0.000000" fill="none" stroke="gainsboro" stroke-width="31.2045" /><path d="M 174.406234,306.963989 a 94.653650,94.653650 0.000000 0,0 151.187532,0.000000" fill="none" stroke="rgb(227,109,0)" stroke-width="12.4818" /><path d="M 155.715468,321.048491 a 118.057025,118.057025 0.000000 0,0 188.569065,0.000000" fill="none" stroke="gray" stroke-width="1" /><path d="M 178.559738,303.834099 a 89.452900,89.452900 0.000000 0,0 142.880525,0.000000" fill="none" stroke="gray" stroke-width="1" /><path d="M 237.323760,146.760312 a 104.015000,104.015000 0.000000 0,0 -83.070073,143.881586" fill="none" stroke="gainsboro" stroke-width="31.2045" /><path d="M 238.464622,156.051884 a 94.653650,94.653650 0.000000 0,0 -75.593766,130.932244" fill="none" stroke="rgb(227,109,0)" stroke-width="12.4818" /><path d="M 235.612468,132.822954 a 118.057025,118.057025 0.000000 0,0 -94.284532,163.305600" fill="none" stroke="gray" stroke-width="1" /><path d="M 239.098434,161.213868 a 89.452900,89.452900 0.000000 0,0 -71.440262,123.738164" fill="none" stroke="gray" stroke-width="1" /><path d="M 315.009375 137.400460 329.051400 113.078959" fill="none" stroke="gray" stroke-width="12.4818" /><path d="M 315.009375 137.400460 328.531325 113.979755" fill="none" stroke="gainsboro" stroke-width="10.4015" /><path d="M 315.009375 137.400460 318.129825 131.995682" fill="none" stroke="rgb(250,19,0)" stroke-width="10.4015" /><path d="M 362.599540 184.990625 386.921041 170.948600" fill="none" stroke="gray" stroke-width="33.284800000000004" /><path d="M 362.599540 184.990625 386.020245 171.468675" fill="none" stroke="gainsboro" stroke-width="31.204500000000003" /><path d="M 362.599540 184.990625 379.264272 175.369237" fill="none" stroke="rgb(48,145,0)" stroke-width="31.204500000000003" /><path d="M 380.018750 250.000000 408.102800 250.000000" fill="none" stroke="gray" stroke-width="12.4818" /><path d="M 380.018750 250.000000 407.062650 250.000000" fill="none" stroke="gainsboro" stroke-width="10.4015" /><path d="M 380.018750 250.000000 391.460400 250.000000" fill="none" stroke="rgb(227,109,0)" stroke-width="10.4015" /><path d="M 333.574442 349.600141 351.626521 371.113771" fill="none" stroke="gray" stroke-width="7.2810500000000005" /><path d="M 333.574442 349.600141 350.957925 370.316970" fill="none" stroke="gainsboro" stroke-width="5.20075" /><path d="M 333.574442 349.600141 345.943459 364.340962" fill="none" stroke="rgb(48,145,0)" stroke-width="5.20075" /><path d="M 294.469032 372.177660 304.074342 398.568034" fill="none" stroke="gray" stroke-width="22.883300000000002" /><path d="M 294.469032 372.177660 303.718590 397.590613" fill="none" stroke="gainsboro" stroke-width="20.803" /><path d="M 294.469032 372.177660 297.492926 380.485741" fill="none" stroke="rgb(242,48,0)" stroke-width="20.803" /><path d="M 250.000000 380.018750 250.000000 408.102800" fill="none" stroke="gray" stroke-width="12.4818" /><path d="M 250.000000 380.018750 250.000000 407.062650" fill="none" stroke="gainsboro" stroke-width="10.4015" /><path d="M 250.000000 380.018750 250.000000 386.259650" fill="none" stroke="rgb(250,19,0)" stroke-width="10.4015" /><path d="M 205.530968 372.177660 195.925658 398.568034" fill="none" stroke="gray" stroke-width="7.2810500000000005" /><path d="M 205.530968 372.177660 196.281410 397.590613" fill="none" stroke="gainsboro" stroke-width="5.20075" /><path d="M 205.530968 372.177660 196.281410 397.590613" fill="none" stroke="rgb(1,128,0)" stroke-width="5.20075" /><path d="M 166.425558 349.600141 148.373479 371.113771" fill="none" stroke="gray" stroke-width="12.4818" /><path d="M 166.425558 349.600141 149.042075 370.316970" fill="none" stroke="gainsboro" stroke-width="10.4015" /><path d="M 166.425558 349.600141 155.728030 362.348959" fill="none" stroke="rgb(109,168,0)" stroke-width="10.4015" /><path d="M 120.693506 263.590660 92.763304 266.526243" fill="none" stroke="gray" stroke-width="15.082175" /><path d="M 120.693506 263.590660 93.797756 266.417517" fill="none" stroke="gainsboro" stroke-width="13.001875" /><path d="M 120.693506 263.590660 93.797756 266.417517" fill="none" stroke="rgb(1,128,0)" stroke-width="13.001875" /><path d="M 126.344821 209.821997 99.635302 201.143548" fill="none" stroke="gray" stroke-width="15.082175" /><path d="M 126.344821 209.821997 100.624543 201.464972" fill="none" stroke="gainsboro" stroke-width="13.001875" /><path d="M 126.344821 209.821997 100.624543 201.464972" fill="none" stroke="rgb(1,128,0)" stroke-width="13.001875" /><path d="M 153.377239 163.000475 132.506722 144.208578" fill="none" stroke="gray" stroke-width="15.082175" /><path d="M 153.377239 163.000475 133.279704 144.904574" fill="none" stroke="gainsboro" stroke-width="13.001875" /><path d="M 153.377239 163.000475 148.739346 158.824498" fill="none" stroke="rgb(250,19,0)" stroke-width="13.001875" /><path d="M 197.116610 131.221962 185.693798 105.565905" fill="none" stroke="gray" stroke-width="15.082175" /><path d="M 197.116610 131.221962 186.116865 106.516130" fill="none" stroke="gainsboro" stroke-width="13.001875" /><path d="M 197.116610 131.221962 193.520540 123.145055" fill="none" stroke="rgb(242,48,0)" stroke-width="13.001875" /><path d="M 185.510700,250.000000 a 64.489300,64.489300 0.000000 0,1 128.978600,0.000000" fill="none" id="id1" stroke-width="0" /><path d="M 264.577676,131.274359 a 119.617250,119.617250 0.000000 0,1 95.530583,165.463824" fill="none" id="id2" stroke="green" stroke-width="0" /><path d="M 146.993110,327.621259 a 128.978600,128.978600 0.000000 0,0 206.013780,0.000000" fill="none" id="id3" stroke="green" stroke-width="0" /><path d="M 139.891741,296.738183 a 119.617250,119.617250 0.000000 0,1 95.530583,-165.463824" fill="none" id="id4" stroke="green" stroke-width="0" /><path d="M 325.000360 125.178441 383.929213 27.104358" fill="none" id="id5" stroke-width="0" /><path d="M 377.362996 179.401538 477.433922 123.931318" fill="none" id="id6" stroke-width="0" /><path d="M 395.598821 252.541437 509.997895 254.538280" fill="none" id="id7" stroke-width="0" /><path d="M 341.642265 363.168772 413.646901 452.087093" fill="none" id="id8" stroke-width="0" /><path d="M 297.409560 387.687360 334.659929 495.870287" fill="none" id="id9" stroke-width="0" /><path d="M 247.458563 395.598821 245.461720 509.997895" fill="none" id="id10" stroke-width="0" /><path d="M 165.340071 495.870287 202.590440 387.687360" fill="none" id="id11" stroke-width="0" /><path d="M 86.353099 452.087093 158.357735 363.168772" fill="none" id="id12" stroke-width="0" /><path d="M -8.099220 281.690599 105.464437 267.746736" fill="none" id="id13" stroke-width="0" /><path d="M 1.324902 173.972393 110.741945 207.424540" fill="none" id="id14" stroke-width="0" /><path d="M 53.747208 79.400050 140.098436 154.464028" fill="none" id="id15" stroke-width="0" /><path d="M 140.103404 14.325989 188.457906 118.022554" fill="none" id="id16" stroke-width="0" /></g><circle cx="250.0" cy="250.0" fill="gainsboro" r="62.409" stroke="gray" /><circle cx="250.0" cy="250.0" fill="rgb(204,204,0)" r="31.2045" stroke="none" /><line stroke="gray" stroke-width="1" x1="332.3418286053958" x2="358.6720644966561" y1="284.95203256363817" y2="296.1285546043364" /><line stroke="gray" stroke-width="1" x1="260.90156618868633" x2="264.3875321211151" y1="161.21386835184398" y2="132.82295416202666" /><line stroke="gray" stroke-width="1" x1="178.5597375832905" x2="155.715467624459" y1="303.83409908451785" y2="321.0484912336369" /><line stroke="gray" stroke-width="1" x1="321.4402624167095" x2="344.284532375541" y1="303.83409908451785" y2="321.0484912336369" /><line stroke="gray" stroke-width="1" x1="239.09843381131373" x2="235.61246787888496" y1="161.21386835184398" y2="132.82295416202663" /><line stroke="gray" stroke-width="1" x1="167.6581713946042" x2="141.32793550334395" y1="284.95203256363817" y2="296.12855460433644" /><text style="font-size:14px; font-family:Arial; font-weight:bold"><textPath startOffset="15%" xlink:href="#id1">Vulnerabilidad</textPath></text><text style="font-size:12px; font-family:Arial; font-weight:bold"><textPath startOffset="33%" xlink:href="#id2">Exposici贸n</textPath><textPath startOffset="33%" xlink:href="#id3">Resiliencia</textPath><textPath startOffset="33%" xlink:href="#id4">Susceptibilidad</textPath></text><text style="font-size:10px; font-family:Arial; font-weight:bold"><textPath startOffset="13%" xlink:href="#id5">Expocisi贸n A</textPath><textPath startOffset="13%" xlink:href="#id6">Expocisi贸n B</textPath><textPath startOffset="13%" xlink:href="#id7">Expocisi贸n C</textPath><textPath startOffset="13%" xlink:href="#id8">Resiliencia A</textPath><textPath startOffset="13%" xlink:href="#id9">Resiliencia B</textPath><textPath startOffset="13%" xlink:href="#id10">Resiliencia C</textPath><textPath startOffset="25.810000000000002%" xlink:href="#id11">Resiliencia D</textPath><textPath startOffset="25.810000000000002%" xlink:href="#id12">Resiliencia E</textPath><textPath startOffset="7.290000000000006%" xlink:href="#id13">Susceptibilidad A</textPath><textPath startOffset="7.290000000000006%" xlink:href="#id14">Susceptibilidad B</textPath><textPath startOffset="7.290000000000006%" xlink:href="#id15">Susceptibilidad C</textPath><textPath startOffset="7.290000000000006%" xlink:href="#id16">Susceptibilidad D</textPath></text></svg>